<?xml version="1.0" encoding="utf-8"?>
<!-- Generator: Adobe Illustrator 29.0.1, SVG Export Plug-In . SVG Version: 9.03 Build 54978)  -->
<svg version="1.0" id="Layer_1" xmlns="http://www.w3.org/2000/svg" xmlns:xlink="http://www.w3.org/1999/xlink" x="0px" y="0px"
	 viewBox="0 0 2551.18 2551.18" style="enable-background:new 0 0 2551.18 2551.18;" xml:space="preserve">
<g>
	<path d="M1696.99,756.56c341.63-129.96,672.79,200.54,541.21,544.57c-48.91,127.87-152.11,209.39-277.16,257.15
		c109.12,140.39,118.25,346.12,18.42,493.73c-168.86,249.68-535.44,246.9-701.55-1.95c-350.32,465.31-1023.47-16.57-683.01-494.95
		c-166.16-45.71-298.48-198.5-310.39-372.67c-20.91-305.47,276.9-534.27,564.54-426.07c7.51-5.12,6.91-6.08,7.16-13.76
		c5.59-170.94,79.96-317.82,240.95-391.16C1389.56,218.23,1706.94,440.53,1696.99,756.56z M1260.14,1002.63
		c-422.48,22.67-378.29,672.4,50.7,631.53C1707,1596.42,1668.11,980.72,1260.14,1002.63z"/>
</g>
</svg>
