<?xml version="1.0" encoding="utf-8"?>
<!-- Generator: Adobe Illustrator 29.0.1, SVG Export Plug-In . SVG Version: 9.03 Build 54978)  -->
<svg version="1.0" id="Layer_1" xmlns="http://www.w3.org/2000/svg" xmlns:xlink="http://www.w3.org/1999/xlink" x="0px" y="0px"
	 viewBox="0 0 2551.18 2551.18" style="enable-background:new 0 0 2551.18 2551.18;" xml:space="preserve">
<g id="YUgoh7.tif">
	<g>
		<path d="M1264.76,330.45c42.57-8.95,81.22,48.62,103.03,79.03c88.1,122.83,144.96,269.32,227.14,395.08
			c45.98,70.36,68.5,74,148.35,93.32c132.33,32,272.3,44.45,402.81,83.3c28.55,8.51,111.52,34.75,120.98,65.12
			c10.95,35.07-32.8,92.19-53.21,119.31c-84.77,112.67-195.55,206.71-285.87,314.12c-31.31,37.22-59.82,66.53-62.58,117.97
			c-5.14,95.91,24.91,227.01,35.88,325.45c8.1,72.66,23.62,181.35,7.38,251.13c-14.74,63.33-64.28,49.1-113.77,35.79
			c-139.23-37.46-281.7-128.1-416.42-183.6c-93.37-38.46-108.12-39.14-201.8-0.81c-132.94,54.41-266.93,138.15-403.48,179.86
			c-42.05,12.84-107.5,34.96-126.43-19.6c-20.65-59.54-4.77-181.09,2.36-246.11c11.49-104.77,42.32-236.66,38.65-339.35
			c-2.33-65.22-77.72-137.5-120.91-184.63c-60.45-65.96-271.82-268.28-281.74-346.01c-3.94-30.88,12.11-43.62,36.78-57.19
			c117.63-64.7,350.28-81.69,488.01-114.78c71.4-17.15,97.16-19.83,140-82.22c58.54-85.25,104.88-188.94,156.71-279.39
			C1131.7,492.67,1218.02,340.27,1264.76,330.45z"/>
	</g>
</g>
</svg>
