<?xml version="1.0" encoding="utf-8"?>
<!-- Generator: Adobe Illustrator 29.0.1, SVG Export Plug-In . SVG Version: 9.03 Build 54978)  -->
<svg version="1.0" id="Layer_1" xmlns="http://www.w3.org/2000/svg" xmlns:xlink="http://www.w3.org/1999/xlink" x="0px" y="0px"
	 viewBox="0 0 2551.18 2551.18" style="enable-background:new 0 0 2551.18 2551.18;" xml:space="preserve">
<g id="Brg5sY_00000101068288013289026020000016504081679639004815_">
	<g>
		<path d="M658.8,1599.51l998.69-801.16c2.45-2.19,3.92-1.29,6.42,0c4.38,2.26,67.54,65.34,69.75,69.74l1.15,4.35L936.3,1842.99
			c-4.58,2.52-9.43,1.91-14.37,1.76c-36.33-1.07-124.38-15.72-155.94-31.86C685.32,1771.64,675.6,1679.15,658.8,1599.51z"/>
		<path d="M1553.1,693.84c4.82-0.75,5.57,0.55,9.08,2.61c3.76,2.21,59.56,57.8,61.52,61.69l1.18,4.37l-995.85,802.56
			c-80.84-16.3-158.67-65.93-167.67-155.74c-2.47-24.7-3.76-86.11-0.54-109.7c0.6-4.43,0.53-8.56,4.83-11.33L1553.1,693.84z"/>
		<path d="M1769.48,907.11l69.3,65.93l1.72,11.51l-620.99,1086.7l-6.78,2.98c-64.53-3.84-118.45,1.72-171.24-42.07
			c-34.33-28.49-64.51-101.13-68.89-144.76c-0.68-6.81-1.47-12.07,2.95-18.08L1769.48,907.11z"/>
		<path d="M1878.98,1013.65c16.91,22.64,55.17,47.42,69.75,69.34c1.99,2.98,3.91,5.09,2.54,9.01l-441.06,1134.14
			c-10.53,30.62-30.76,39.62-61.38,42.1c-117.86,9.57-145.99-83.5-187.6-171.6L1878.98,1013.65z"/>
		<path d="M1892.88,283.72c254.04-22.52,441.46,218.78,352.31,459.03c-29.38,79.18-88,129.44-146.77,186.52l-479.71-476.75
			C1696.82,368.69,1771.71,294.46,1892.88,283.72z"/>
		<path d="M326.28,1200.01c-36.27-35.25-68.33-126.21-13.1-157.96l1146.01-445.09l62.39,59.3L441.62,1248.2
			c-13.12,3.4-50.73-10.42-64.68-16.39C360.27,1224.68,339.24,1212.6,326.28,1200.01z"/>
		<path d="M1597.42,498.1c130.12,125.87,257.16,258.34,385.02,386.01l77.82,77.76l-0.01,6.42l-81.03,77.75l-475.56-472.27v-6.41
			l79.42-79.4l6.58-0.07C1592.92,490.74,1594.37,495.14,1597.42,498.1z"/>
	</g>
</g>
</svg>
