<?xml version="1.0" encoding="utf-8"?>
<!-- Generator: Adobe Illustrator 29.0.1, SVG Export Plug-In . SVG Version: 9.03 Build 54978)  -->
<svg version="1.0" id="Layer_1" xmlns="http://www.w3.org/2000/svg" xmlns:xlink="http://www.w3.org/1999/xlink" x="0px" y="0px"
	 viewBox="0 0 2551.18 2551.18" style="enable-background:new 0 0 2551.18 2551.18;" xml:space="preserve">
<g id="An8tGX.tif">
	<g>
		<path d="M1626.05,483.87c33.01,9.48,64.43,29.54,78.46,62.05c2.57,5.96,10.82,30.84,10.82,35.46v47.93
			c80.07,3.13,163.29-4.22,243.02,0.03c168.08,8.97,292.35,119.9,309.36,289.06l-0.18,866.13
			c-13.53,148.83-130.67,267.63-279.26,282.79l-1428.64-0.18c-118-13.73-223.37-95.48-260.59-208.9
			c-7.02-21.4-10.05-43.7-15.59-65.4V903.66c27.49-162.56,144.6-265.53,309.23-274.32c79.73-4.26,162.96,3.1,243.02-0.03v-51.23
			c0-2.23,9.65-30.5,11.59-34.69c14.21-30.69,46.21-50.46,77.7-59.51H1626.05z M1228.56,858.37
			c-385.25,31.5-580.36,493.14-339.8,797.15c239.67,302.89,722.32,222.35,850.62-141.1
			C1860.32,1171.82,1587.67,829.01,1228.56,858.37z M596.96,874.74c-137.15,10.78-120.23,223.21,25.17,203.83
			C745.84,1062.09,726.95,864.52,596.96,874.74z"/>
		<path d="M1241.78,954.22c320.28-24.39,541.04,319.13,375.74,597.05c-141.76,238.34-476.41,262.6-651.23,46.59
			C767.06,1351.7,927.61,978.14,1241.78,954.22z"/>
	</g>
</g>
</svg>
