<?xml version="1.0" encoding="utf-8"?>
<!-- Generator: Adobe Illustrator 29.0.1, SVG Export Plug-In . SVG Version: 9.03 Build 54978)  -->
<svg version="1.0" id="Layer_1" xmlns="http://www.w3.org/2000/svg" xmlns:xlink="http://www.w3.org/1999/xlink" x="0px" y="0px"
	 viewBox="0 0 2551.18 2551.18" style="enable-background:new 0 0 2551.18 2551.18;" xml:space="preserve">
<g id="TDqw72_00000142166958485248303730000016357214198555228578_">
	<g>
		<path d="M1653.79,2219.78h-136.15c-30.42-7.12-61.24-12.21-91.59-19.97c-146.53-37.46-157.82-36.57-303.94,0.77
			c-29.34,7.5-59.21,12.14-88.57,19.2c-43.88-3.04-92.95,4.1-136.15,0c-210.66-20.01-377.09-197.47-310.19-413.91
			c48.58-157.15,176.52-214.15,274.32-330.58c69.23-82.42,102.58-177.58,193.53-241.24c166.72-116.71,398.44-84.49,522.46,77.43
			c32.12,41.93,50.47,91.88,79.97,135.51c93.04,137.64,238.85,167.59,301.7,344.78C2037.54,2012.72,1871.1,2199.18,1653.79,2219.78z
			"/>
		<path d="M1052.45,330.09c84.73,26.85,115.18,120.54,131.25,199.54c38.73,190.32,44.53,513.19-176.68,595.98
			c-215.89,80.8-361.98-172.86-351.64-358.95c9.56-171.97,175.64-390.14,344.13-436.56H1052.45z"/>
		<path d="M1551.68,330.09c167.07,45.41,332.81,262.82,344.12,432.79c13.33,200.3-159.11,471.95-382.01,347.73
			c-191.83-106.91-184.37-393.93-146.31-580.98c15.97-78.48,46.58-173.85,131.25-199.54H1551.68z"/>
		<path d="M2281.6,1206.91v90.71c-7.75,184.3-246.52,414.07-423.27,273.69c-178.39-141.68-44.64-440.75,75.43-577.83
			C2123.97,776.31,2265.87,1012.66,2281.6,1206.91z"/>
		<path d="M269.58,1297.61v-90.71c21.23-191.89,154.22-434.59,347.84-213.43c119.66,136.68,254.23,437.01,75.43,577.83
			C512.2,1713.57,285.41,1483.57,269.58,1297.61z"/>
	</g>
</g>
</svg>
