<?xml version="1.0" encoding="utf-8"?>
<!-- Generator: Adobe Illustrator 29.0.1, SVG Export Plug-In . SVG Version: 9.03 Build 54978)  -->
<svg version="1.0" id="Layer_1" xmlns="http://www.w3.org/2000/svg" xmlns:xlink="http://www.w3.org/1999/xlink" x="0px" y="0px"
	 viewBox="0 0 2551.18 2551.18" style="enable-background:new 0 0 2551.18 2551.18;" xml:space="preserve">
<g id="yKLUuS_00000171699213698789168490000012935637147642548884_">
	<g>
		<path d="M1356.8,302.31c287.05,32.38,553.6,147.06,692.52,412.71c114.83,219.58,103.88,461.28,101.63,702.74
			c172.52,146.29,159.83,619.92-78.08,696.09c-13.23,4.24-94.72,24.93-94.72,7.95V1356.7c0-1.69,18.58,7.68,21.9-18.65
			c7.05-55.96,2.92-168.18-0.06-227.59c-13.77-274.55-137.1-505.05-402.65-602.77c-297.99-109.66-739.27-64.23-927.95,217.86
			c-124.32,185.86-123.44,411.5-117.99,627.84l21.97,11.43v757c0,3.44-8.64,7.78-13.44,8.28c-15.56,1.6-67.61-11.9-85.22-17.69
			c-233.83-76.89-245.58-544.93-76.96-690.83l2.76-8.05c1.02-202.87-13.09-407.53,59.29-600.33
			c122.58-326.49,400.36-478.65,737.14-505.87l8.58-5.01H1356.8z"/>
		<path d="M1837.68,2248.87h-75.64c-53.1-22.35-85.91-56.69-91.8-116.3c-24.76-250.5,18.59-540.34-0.24-794.99
			c11.94-161.38,245.35-166.38,259.73,0c21.9,253.46-16.73,538.22-0.25,794.97C1923.22,2188.51,1889.31,2229.02,1837.68,2248.87z"/>
		<path d="M784.08,2248.87h-70.24c-49.82-19.19-81.73-52.01-91.39-105.9l-0.65-805.39c14-162.13,246.17-167.72,259.73,5.4
			c19.74,251.98-15.13,529.5-0.25,784.18C875.06,2189.89,842.82,2228.64,784.08,2248.87z"/>
	</g>
</g>
</svg>
