<?xml version="1.0" encoding="utf-8"?>
<!-- Generator: Adobe Illustrator 29.0.1, SVG Export Plug-In . SVG Version: 9.03 Build 54978)  -->
<svg version="1.0" id="Layer_1" xmlns="http://www.w3.org/2000/svg" xmlns:xlink="http://www.w3.org/1999/xlink" x="0px" y="0px"
	 viewBox="0 0 2551.18 2551.18" style="enable-background:new 0 0 2551.18 2551.18;" xml:space="preserve">
<g id="GKh36z.tif">
	<g>
		<path d="M1519.24,2318.96c-167.15-15.66-264.98-166.48-308.55-314.05c-29.2-98.92-25.09-184.94-21.34-286.49
			c0.99-26.73,1.08-53.46,3.61-80.08l-5.71,24.21c-27.83,129.32-28.91,294.42-132.94,390.07c-35.24,32.4-90.2,66.86-136.98,78.08
			c-61.31,14.72-186.17,0.48-244.52-25.36c-68.19-30.2-139.64-123.75-176.58-187.57c-10.76-18.6-27.76-61.44-38.87-74.77
			c-6.1-7.32-21.41-17.3-29.37-24.41c-39.82-35.56-74.88-75.38-106.07-118.76c-31.22-43.42-37.66-53.16-35.68-108.54
			c4.16-115.82,25.79-206.02,113.64-285.94c103.09-93.77,194.48-97.61,328.07-103.28c18.88-0.81,37.98-0.56,56.87-1.19l-12.83-2.42
			c-155.19-10.99-365.16-44.89-459.85-182.91c-39.4-57.43-32.37-163.04-9.11-226.17c36.28-98.49,133.98-158.78,211.77-222.04
			c92.79-126.53,198.93-279.99,367.36-303.51c101.61-14.18,223.04,47.3,286.34,125.11c65.69,80.74,68.2,190.59,82.08,289.4
			c0.49,3.47,0.94,7.18,1.64,10.6c0.27,1.32,0.07,3.94,1.85,3.62c6.17-57.41,7.04-116.94,17.51-173.74
			c7.53-40.86,36.06-79.72,60.94-112.58c104.81-138.45,299.23-233.84,461.11-127.95c72.09,47.16,101.95,105.36,153.38,169.23
			c68.07,84.53,177.36,104.69,237.04,196.76c55.68,85.9,48.32,166.5,22.84,262.4c-37.12,139.73-166.77,217.81-293.85,267.03
			c-11.97,4.63-31.25,9.04-41.51,14.69c-1.39,0.77-2.08-0.07-1.55,2.73c140.25,1.72,284.36,36.88,360.7,164.15
			c24.52,40.88,35.7,67.47,37.67,115.68v19.55c-2.03,1.27-1.22,4.63-1.25,6.7c-0.49,46.04-7.74,108.66-22.63,152.11
			c-11.03,32.17-32.35,57.95-45.22,89.2c-62.02,29.97-103.59,86.75-137.18,145.09c-25.21,43.77-47.2,100.2-82.08,136.65
			c-10.06,10.52-22.47,18.23-33.04,28.05c-15.35,14.27-24.28,25.85-42.86,37.79c-72.14,46.43-147.17,53.41-229.34,29.14
			c-103.96-30.69-210.89-150.14-267.67-239.45c-26.42-41.56-32.08-93.34-44.2-140.37c-0.53-2.02,1.25-3.58-2.46-2.97
			c4.67,94.76,13.88,189.27,50.74,277.34c20.65,49.33,39.57,81.46,76.93,119.8c52.17,53.56,90.74,73.39,65.29,159.35
			c-4.21,14.22-10.63,20.74-21.9,30.03C1527.47,2318.71,1523.19,2319.34,1519.24,2318.96z"/>
	</g>
</g>
</svg>
