<?xml version="1.0" encoding="utf-8"?>
<!-- Generator: Adobe Illustrator 29.0.1, SVG Export Plug-In . SVG Version: 9.03 Build 54978)  -->
<svg version="1.0" id="Layer_1" xmlns="http://www.w3.org/2000/svg" xmlns:xlink="http://www.w3.org/1999/xlink" x="0px" y="0px"
	 viewBox="0 0 2551.18 2551.18" style="enable-background:new 0 0 2551.18 2551.18;" xml:space="preserve">
<g>
	<path d="M1974.76,761.49c-101.75-113.74-225.63-216.35-329.3-329.3c-133.25-118.72-336.86-106.7-467.49,9.66L740.52,879.31
		c-115.93,128.89-117.7,290.55-85.94,453c13.39,68.49,41.1,142.3,21.33,212.45c-8.47,30.05-30.01,37.69-20.9,72.95
		c14.84,57.4,78.21,106.78,87.5,168.42c2.14,0.43,3.78-0.21,5.71-1.01c11.84-4.88,33.46-22.65,47.05-30.22
		c108.11-60.26,165.66-27.12,275.53-2.55c160.89,35.99,333.75,43.46,464.56-72.4l443.25-443.25
		C2095.92,1100.59,2094.81,895.69,1974.76,761.49z"/>
	<path d="M1920.7,1528.19c-8.39,0.6-25.52,2.97-40.53,5.96c-2.39,0.43-5.33,1.05-8.92,1.91c-0.01,0-0.03,0.01-0.04,0.01
		c-0.25,0.06-0.48,0.11-0.74,0.18c-0.02,0.01-0.05,0.01-0.07,0.02c-4.98,1.18-9.32,2.41-12.49,3.63
		c-24.01,7.96-48.03,20.92-48.03,20.92l0,0.01c-157.79,79.04-209.95,287.26-99.51,434.53c118.93,158.6,362.06,152.71,473.59-10.78
		C2322.16,1781.97,2163.71,1510.72,1920.7,1528.19z M1987.78,1540.22c7.92-7.65,38.38,2.11,48.29,5.81
		c11.03,4.12,27.51,8.84,26.29,23.24c-2.8,10.25-32.35,2.76-40.23,0.37C2014.69,1567.38,1975.83,1551.77,1987.78,1540.22z
		 M1988.26,1607.34c28.12-19.88,79.83,13.53,59.79,44.34c-13.68,21.03-46.62,15.14-61.98-0.6
		C1974.07,1638.78,1973.48,1617.79,1988.26,1607.34z M2010.07,1727.54c50.55-5.54,58.06,70.35,10.88,76.62
		C1966.21,1811.44,1961.26,1732.89,2010.07,1727.54z M1834.71,1656.62c-18.4-21.77,7.87-51.19,30.46-54.56
		c15.52-2.31,34.59-0.34,39.71,17.2C1915.06,1654.19,1857.07,1683.08,1834.71,1656.62z M1874.16,1804.17
		c-53.76,7.15-61.92-70.58-10.88-76.62C1912.49,1721.73,1921.15,1797.91,1874.16,1804.17z M1866.14,1568.26
		c-7.59,2.34-44.81,12.12-44.73-2.09c-0.06-9.78,22.39-18.26,38.6-23.1c11.54-2.48,28.64-10.12,37.94-0.89
		C1908.19,1552.34,1872.57,1566.28,1866.14,1568.26z M1711.05,1965.69c-3.66-9.58-7.86-31.5,5.3-35.4
		c20.81-6.17,49,24.55,52.26,43.51C1777.22,2023.92,1722.87,1996.66,1711.05,1965.69z M1718.81,1774.37
		c3.01-3.45,8.54-9.23,13.03-10.22c35.38-7.73,50.29,56.77,23.76,79.84C1721.4,1873.73,1689.08,1808.5,1718.81,1774.37z
		 M1769.99,1653.66c-5.11,14.69-36.2,52.43-51.2,33.9c-14.51-17.93,15.96-61.96,36.22-66.25
		C1777.29,1616.6,1775.19,1638.71,1769.99,1653.66z M1826,1939.59c-16.95-22.13-9.61-55.28,19.86-59.4
		c20.96-2.93,41.63,9.72,48.31,29.86C1909.31,1955.66,1852.98,1974.81,1826,1939.59z M1900.4,2056.41
		c-14.57-22.07,17.53-37.99,36.35-39.1c13.79-0.81,34.93,3.67,42.85,15.9C2003.13,2069.56,1924.13,2092.36,1900.4,2056.41z
		 M2050.04,1953.02c-20.78,17.99-55.6,10.1-64.1-16.93c-6.86-21.83,6.66-49.35,29.82-54.05
		C2061.16,1872.81,2083.77,1923.8,2050.04,1953.02z M2121.98,1627.04c19.66-4.26,46.25,25.06,48.63,43.24
		c4.16,31.87-26.86,21.3-41.33,6.59C2119.7,1667.12,2100.38,1631.72,2121.98,1627.04z M2144.72,1846.88
		c-38.46,0-40.33-78.12-1.45-80.68C2183.41,1763.56,2185.87,1846.87,2144.72,1846.88z M2171.15,1969.84
		c-6.18,15.23-40.48,51.23-54.47,28.66c-12.63-20.37,18.27-64.78,40.14-68.27C2179.05,1926.68,2176.52,1956.59,2171.15,1969.84z"/>
	<path d="M303.1,1967.68l-5.36-1.68c-7.12,1.1-16.84,16.54-23.87,20.7c-6.89,4.08-17.14,5.47-25.18,9.58
		c-21.42,10.94-43.95,35.48-54.3,57.02l126.04,140.39c8.44,12,30.47-6.87,38.65-13.64c28.72-23.77,35.36-38.74,21.27-75.23
		C361.86,2057.02,319.06,2017.39,303.1,1967.68z"/>
	<path d="M413.84,1922.62c-4.37-7.6-21.6-46.22-23.72-47.84c-1.13-0.86-2-1.86-3.62-1.48c-5.64,0.58-35.69,25.74-41.18,31.31
		c-8.07,8.18-27.85,31.48-27.56,42.58c0.27,10.39,11.68,33.14,16.9,43.02c16.72,31.65,41.03,59.03,57.07,91.64
		c3.55,7.23,11.02,31.08,13.75,34.54c4.84,6.16,20.05-8.93,24.17-12.54c11.02-9.62,46.09-47.25,47.88-60.32
		c1.51-11.04-14.64-43.15-20.53-53.99C444.31,1966.24,427.07,1945.62,413.84,1922.62z"/>
	<path d="M483.97,1810c-2.22-4.7-5.86-20.77-10.84-21.32c-12.61-1.39-58.91,46.57-63.27,59.77c-5.45,16.48,7.61,40.31,15.57,54.86
		c19.62,35.93,44.21,65.09,62.48,103.61c2.36,4.97,4.17,18.6,10.2,18.72c14.38,0.28,66.97-55.36,66.6-70.28
		c-0.72-28.84-47.43-85.94-63.26-112.62C495.2,1832.19,489.22,1821.09,483.97,1810z"/>
	<path d="M558.79,1707.19c-5.93-3.84-24.73,10.96-29.75,15.16c-9.67,8.1-37.22,36.58-37.08,48.93
		c0.13,11.26,12.67,36.46,18.45,47.05c19.79,36.24,45.59,65.84,63.08,104.95c2.89,6.47,2.12,18.27,11.48,17.41
		c13.72-1.25,52.01-43.49,56.87-57.25c5.67-16.03-5-36.36-12.28-50.99C608.24,1789.6,572.34,1754.18,558.79,1707.19z"/>
	<path d="M636.1,1620.22c-3.29-1.03-5.81-0.05-8.62,1.65c-10.33,6.25-37.18,39.26-44.15,50.47c-11.26,18.1-9.9,20.18-2.06,40.36
		c15.76,40.55,50.47,78.26,70.18,119.09c2.3,4.76,8.76,26.95,12.8,27.27c16.48-7.3,30.82-18.8,42.54-32.34
		c19.43-22.44,20.59-29.47,9.59-57.93C696.42,1717.06,648.63,1676.07,636.1,1620.22z"/>
</g>
</svg>
