<?xml version="1.0" encoding="utf-8"?>
<!-- Generator: Adobe Illustrator 29.0.1, SVG Export Plug-In . SVG Version: 9.03 Build 54978)  -->
<svg version="1.0" id="Layer_1" xmlns="http://www.w3.org/2000/svg" xmlns:xlink="http://www.w3.org/1999/xlink" x="0px" y="0px"
	 viewBox="0 0 2551.18 2551.18" style="enable-background:new 0 0 2551.18 2551.18;" xml:space="preserve">
<g id="aGFXZj_00000137848959388909677560000003774966937625848482_">
	<g>
		<path d="M2167.43,283.46c13.5,6.35,28.68,6.82,42.95,12.56c41.48,16.68,45.83,48.91,57.34,87.72v46.56
			c-14.78,79.29-56.25,148.96-105.6,211.37l-359.39,338.86l305.87,1088.49l-2.38,6.43c-22.88,19.12-90.72,126.92-113.3,130.74
			c-5.11,0.86-10.35-0.72-14.27-4.08l-575.91-847.68l-384.37,357.11l71.11,447.05c0.91,16.76-9.26,26.8-18.15,39.16
			c-17.21,23.93-42.98,49.64-64.37,69.95h-14.33l-234.6-365.27c-44.94,37.82-99.86,79.83-158.58,92.08
			c-29.6,6.18-50.3,15.68-46.92-21.86c5.93-65.96,55.28-130.36,96.2-179.52l-365.27-234.6v-14.33
			c22.19-22.66,49.94-50.91,75.53-69.53c12.41-9.03,21.18-14.23,37.28-14.44l443.32,72.65l357.14-384.45L349.52,570.23l-5.36-12.59
			c38.09-44.12,91.97-79.39,137.98-115.07l13.29,3.06l1072.14,302.25c16.63-15.07,32.77-31,48.43-47.09
			c117.67-120.89,268.16-327.39,421.2-391.75l83.66-25.58H2167.43z"/>
	</g>
</g>
</svg>
