<?xml version="1.0" encoding="utf-8"?>
<!-- Generator: Adobe Illustrator 29.0.1, SVG Export Plug-In . SVG Version: 9.03 Build 54978)  -->
<svg version="1.0" id="Layer_1" xmlns="http://www.w3.org/2000/svg" xmlns:xlink="http://www.w3.org/1999/xlink" x="0px" y="0px"
	 viewBox="0 0 2551.18 2551.18" style="enable-background:new 0 0 2551.18 2551.18;" xml:space="preserve">
<g id="X2nkVJ_00000072259782151137117310000008347479342258000519_">
	<g>
		<path d="M1079.78,860.59C953.39,778.98,814.41,701.47,660.7,693.05c94.29,110.12,504.65,162.9,412.32,363.15
			c-24.49,53.12-226.03,270.92-277.52,316.5c-114.45,101.3-332.37,149.59-434.27,3.97c-107.85-154.11,17.4-325.04,18.62-496.62
			c0.98-137.31-142.82-458.92,67.22-505.65c224.05-49.85,397.08,125.06,520.48,284.16C991.61,689.57,1104.01,828.13,1079.78,860.59z
			 M870.31,944.58c-98.59,3.77-208.08,22.83-279.48,97.54C681.49,1022.88,797.74,1002.07,870.31,944.58z"/>
		<path d="M2179.55,417.68c97.45,109.92-9.08,318.11-9.66,449.91c-0.56,127.07,83.11,297.58,66.67,401.81
			c-32.4,205.37-262.29,241.56-420.79,147.94c-56.73-33.51-284.88-274.15-322.99-333.73c-139.08-217.46,294.51-277.54,397.63-390.56
			c-146.37,13.61-295.13,78.09-412.3,167.48c-14.3-3.73-7.03-34.49-3.42-45.34c21.03-63.3,217.72-292.28,275.83-339.04
			C1851.32,395.03,2076.53,301.47,2179.55,417.68z M1960.29,1042.12c-67.53-78.81-181.7-91.42-279.48-97.54
			C1753.38,1002.07,1869.62,1022.87,1960.29,1042.12z"/>
		<path d="M2267.72,2006.33c-61.2,5.79-112.27-2.16-170.62-17.89c-54.76-14.76-257.32-128.34-281.82-120.93
			c-37.11,11.22-50.63,195.07-71.63,236.72l-34.96,77.07c-169.4-279.6-308.72-666.59-333.87-994.4
			c-4.86-63.32,13.6-99.11,82.2-67.56c45.08,20.73,163.14,181.52,217.18,229.98c73.44,65.85,182.18,104.77,237.38,153.89
			c41.83,37.23,107.98,171.09,149.1,228.2C2127.76,1824.56,2197.2,1915.96,2267.72,2006.33z"/>
		<path d="M842.18,2188.03c-21.84-12.78-30.79-69.33-37.81-94.67c-11.67-42.18-38.91-216.89-68.53-225.85
			c-42.99-13-356.47,204.43-452.38,132.04c47.8-54.78,94.45-111.44,137.12-170.31c52.86-72.94,170.19-282.64,218.96-326.03
			c55.2-49.13,163.94-88.04,237.38-153.89c54.11-48.52,171.99-209.16,217.18-229.98c69.02-31.79,86.85,4.67,82.21,67.56
			c-9.52,129.04-66.55,355.53-103.41,484.16C1019.52,1857.39,937.11,2020.77,842.18,2188.03z"/>
		<path d="M1429.27,1049.24c-14.53,48.3-248.36,44.71-284.16,22.08c-31.85-20.14-32.02-220.49-16.35-252.72
			c21.28-43.76,261.45-44.91,300.51,7.05V1049.24z"/>
	</g>
</g>
</svg>
