<?xml version="1.0" encoding="utf-8"?>
<!-- Generator: Adobe Illustrator 29.0.1, SVG Export Plug-In . SVG Version: 9.03 Build 54978)  -->
<svg version="1.0" id="Layer_1" xmlns="http://www.w3.org/2000/svg" xmlns:xlink="http://www.w3.org/1999/xlink" x="0px" y="0px"
	 viewBox="0 0 2551.18 2551.18" style="enable-background:new 0 0 2551.18 2551.18;" xml:space="preserve">
<g id="VrdFe6.tif">
	<g>
		<path d="M1262.24,803.2c378-7.32,613.02,406.98,410.05,727.57c-181.4,286.51-604.58,288.82-791.69,6.81
			C676.13,1229.4,892.67,810.36,1262.24,803.2z"/>
		<path d="M1792.4,1730.13c20.38-2.12,40.27,7.09,55.84,19.26c73.92,57.82,142.24,153.62,215.3,215.66
			c45.05,58.43-11.86,138.69-82.54,110.9c-85.24-68.8-157.9-154.43-237.34-230.47C1708.67,1801.83,1737.2,1735.88,1792.4,1730.13z"
			/>
		<path d="M743.43,1730.2c63.33-5.61,99.3,70.69,58.43,118.11l-216.9,216.9c-69.33,52.18-152.24-30.84-100.16-100.16
			c55.61-74.03,156.39-143.55,216.62-217.17C712.59,1738.54,728.99,1731.48,743.43,1730.2z"/>
		<path d="M1996.42,471.31c69.2-10.76,109.59,66.95,63.06,119.76c-70.23,57.9-134.18,129.81-204.05,187.22
			c-11.19,9.19-26.86,21.78-41.4,23.81c-67.45,9.43-111.33-59.51-69.14-114.51c71.97-60.09,139.49-138.35,212.54-195.74
			C1969.09,482.7,1981.24,473.67,1996.42,471.31z"/>
		<path d="M524.92,471.3c25.31-4.34,45.16,4.19,64.45,19.26c73.17,57.14,140.37,135.93,212.77,195.51
			c54.81,69.3-29.92,157.82-106.39,95.05C624.47,722.6,559.2,648.63,487.37,589.73C449.93,550.99,471.72,480.42,524.92,471.3z"/>
		<path d="M320.91,1205.75c47.02-5.92,149.29-4.7,197.77-0.9c92.01,7.22,91.84,131.5,5.26,141.56
			c-45.79,5.32-148.61,4.44-195.43,0.41C236.12,1338.86,237.23,1216.29,320.91,1205.75z"/>
		<path d="M2022.06,1205.75c47.02-5.92,149.29-4.7,197.77-0.9c92.01,7.22,91.84,131.5,5.26,141.56
			c-45.79,5.32-148.61,4.44-195.43,0.41C1937.27,1338.86,1938.38,1216.29,2022.06,1205.75z"/>
		<path d="M1259.25,261.49c44.58-7.64,81.39,21.63,85.77,65.98c4.38,44.34,5.11,157.4-0.71,200.54
			c-11.3,83.81-131.31,81.51-141-2.14c5.89-64.28-8.33-143.75,0.71-206.2C1207.96,292.53,1231.87,266.19,1259.25,261.49z"/>
		<path d="M1259.25,1962.64c44.58-7.64,81.39,21.63,85.77,65.98c4.38,44.34,5.11,157.4-0.71,200.54
			c-11.3,83.81-131.31,81.51-141-2.14c5.89-64.28-8.33-143.75,0.71-206.2C1207.96,1993.67,1231.87,1967.33,1259.25,1962.64z"/>
	</g>
</g>
</svg>
