<?xml version="1.0" encoding="utf-8"?>
<!-- Generator: Adobe Illustrator 29.0.1, SVG Export Plug-In . SVG Version: 9.03 Build 54978)  -->
<svg version="1.0" id="Layer_1" xmlns="http://www.w3.org/2000/svg" xmlns:xlink="http://www.w3.org/1999/xlink" x="0px" y="0px"
	 viewBox="0 0 2551.18 2551.18" style="enable-background:new 0 0 2551.18 2551.18;" xml:space="preserve">
<g id="ECp1lF_00000059297194261280544030000013889987015938855825_">
	<g>
		<path d="M1330.39,273.82c319.97,18.53,619.31,193.71,790.77,463.69c100.49,158.23,154.08,342.2,156.51,530.41
			c-364.14-36.92-700.72-301.37-873.58-615.76c-63.29-115.11-109.62-246.68-120.67-378.35
			C1298.96,274.46,1314.88,272.92,1330.39,273.82z"/>
		<path d="M1267.76,2277.65h-46.97l-9.47-4.08c-516.51-21.67-938.9-474.78-937.81-990.03
			C768.22,1340.74,1208.29,1784.25,1267.76,2277.65z"/>
		<path d="M1200.8,278.18c55.13,496.44,480.19,952.73,966.52,1055.03c35.38,7.44,71.84,9.84,106.65,19.28
			c-30.95,447.54-373.26,827.16-813.52,908.44c-14.88,2.75-106.4,16.85-110.93,10.52c-52.06-490.85-481.92-952.37-962.34-1052.6
			c-14.85-3.1-108.57-14.62-109.88-20.08C309.49,713.68,714.92,307.71,1200.8,278.18z"/>
	</g>
</g>
</svg>
